<svg width="35" height="35" viewBox="0 0 35 35" fill="none" xmlns="http://www.w3.org/2000/svg">
<path d="M29.3562 6.05935C28.4865 5.31495 27.4537 4.78579 26.3415 4.5147C25.2293 4.24361 24.0689 4.23821 22.9541 4.49894C20.7132 4.98962 18.7545 6.34078 17.5 8.26144C16.2523 6.347 14.3052 4.99661 12.075 4.49894C10.9653 4.23239 9.80909 4.2253 8.69622 4.47823C7.58335 4.73115 6.54379 5.23728 5.65832 5.95727C3.35415 7.96977 2.0854 12.4323 3.52915 16.9531C3.69248 17.4528 3.88693 17.9389 4.11248 18.4114C4.17082 18.5213 4.22429 18.6331 4.2729 18.7469C8.02082 26.3885 16.6833 30.4135 17.0625 30.6031C17.2034 30.6713 17.358 30.7063 17.5146 30.7052C17.6711 30.7063 17.8258 30.6713 17.9667 30.6031C18.3312 30.4427 27.0812 26.4469 30.8 18.7177L30.9167 18.4698C31.1471 17.9739 31.3464 17.4635 31.5146 16.9385C32.8854 12.5635 31.6312 8.10102 29.3562 6.05935ZM28.9041 17.6239C28.7 18.0819 28.4667 18.5242 28.2041 18.951H23.3771C23.1369 18.9498 22.9007 18.8892 22.6895 18.7747C22.4784 18.6603 22.2988 18.4954 22.1667 18.2948L20.6354 16.0198L17.3833 22.5239C17.2806 22.7299 17.1306 22.9086 16.9456 23.0455C16.7605 23.1824 16.5457 23.2735 16.3187 23.3114H16.0854C15.8925 23.3106 15.7016 23.2716 15.5238 23.1965C15.3461 23.1214 15.185 23.0117 15.05 22.8739L11.0979 18.9364H6.85415C6.58582 18.4639 6.34276 17.9778 6.12498 17.4781C5.89925 17.0086 5.71386 16.5207 5.57082 16.0198H11.7104C11.9023 16.0187 12.0926 16.0554 12.2703 16.128C12.4479 16.2006 12.6095 16.3075 12.7458 16.4427L15.6625 19.3594L19.1333 12.4177C19.2487 12.1879 19.4227 11.9926 19.6379 11.8518C19.853 11.7109 20.1015 11.6294 20.3583 11.6156C20.6118 11.6003 20.8649 11.6514 21.0925 11.764C21.3202 11.8765 21.5145 12.0466 21.6562 12.2573L24.1354 15.9906H29.5312C29.3718 16.5545 29.1628 17.0989 28.9041 17.6239Z" fill="white"/>
</svg>
