<svg width="35" height="35" viewBox="0 0 35 35" fill="none" xmlns="http://www.w3.org/2000/svg">
<path d="M12.6146 29.1667H8.75C7.94792 29.1667 7.26153 28.8813 6.69083 28.3106C6.12014 27.7399 5.83431 27.0531 5.83333 26.25V22.3854L3.02604 19.5417C2.75868 19.25 2.55208 18.9282 2.40625 18.5763C2.26042 18.2243 2.1875 17.8656 2.1875 17.5C2.1875 17.1344 2.26042 16.7762 2.40625 16.4252C2.55208 16.0742 2.75868 15.7519 3.02604 15.4583L5.83333 12.6146V8.75C5.83333 7.94792 6.11917 7.26153 6.69083 6.69083C7.2625 6.12014 7.94889 5.83431 8.75 5.83333H12.6146L15.4583 3.02604C15.75 2.75868 16.0723 2.55208 16.4252 2.40625C16.7781 2.26042 17.1364 2.1875 17.5 2.1875C17.8636 2.1875 18.2224 2.26042 18.5763 2.40625C18.9301 2.55208 19.2519 2.75868 19.5417 3.02604L22.3854 5.83333H26.25C27.0521 5.83333 27.739 6.11917 28.3106 6.69083C28.8823 7.2625 29.1676 7.94889 29.1667 8.75V12.6146L31.974 15.4583C32.2413 15.75 32.4479 16.0723 32.5938 16.4252C32.7396 16.7781 32.8125 17.1364 32.8125 17.5C32.8125 17.8636 32.7396 18.2224 32.5938 18.5763C32.4479 18.9301 32.2413 19.2519 31.974 19.5417L29.1667 22.3854V26.25C29.1667 27.0521 28.8813 27.739 28.3106 28.3106C27.7399 28.8823 27.0531 29.1676 26.25 29.1667H22.3854L19.5417 31.974C19.25 32.2413 18.9282 32.4479 18.5763 32.5938C18.2243 32.7396 17.8656 32.8125 17.5 32.8125C17.1344 32.8125 16.7762 32.7396 16.4252 32.5938C16.0742 32.4479 15.7519 32.2413 15.4583 31.974L12.6146 29.1667ZM18.9948 16.7708L21.1458 15.2031L23.2604 16.7708L22.4219 14.2917L24.5729 12.724H21.9479L21.1458 10.2083L20.3438 12.724H17.6823L19.8333 14.2917L18.9948 16.7708ZM17.5 24.7917C19.5174 24.7917 21.2372 24.0868 22.6596 22.6771C24.0819 21.2674 24.7926 19.5417 24.7917 17.5C24.7917 17.3056 24.7858 17.1111 24.7742 16.9167C24.7625 16.7222 24.7319 16.5278 24.6823 16.3333C24.4149 17.4757 23.8194 18.4178 22.8958 19.1596C21.9722 19.9014 20.8906 20.2718 19.651 20.2708C18.1927 20.2708 16.9653 19.7726 15.9688 18.776C14.9722 17.7795 14.474 16.5521 14.474 15.0938C14.474 13.9757 14.7899 12.9733 15.4219 12.0867C16.0538 11.2 16.8802 10.5739 17.901 10.2083H17.5C15.4583 10.2083 13.7326 10.9195 12.3229 12.3419C10.9132 13.7642 10.2083 15.4836 10.2083 17.5C10.2083 19.5417 10.9132 21.2674 12.3229 22.6771C13.7326 24.0868 15.4583 24.7917 17.5 24.7917Z" fill="white"/>
</svg>
