<svg width="35" height="35" viewBox="0 0 35 35" fill="none" xmlns="http://www.w3.org/2000/svg">
<path d="M2.91659 27.7083V11.6667H1.45825V8.75H5.83325V5.83333C5.83325 5.44656 5.9869 5.07563 6.26039 4.80214C6.53388 4.52865 6.90481 4.375 7.29158 4.375H27.7083C28.095 4.375 28.466 4.52865 28.7394 4.80214C29.0129 5.07563 29.1666 5.44656 29.1666 5.83333V8.75H33.5416V11.6667H32.0833V27.7083H33.5416V30.625H1.45825V27.7083H2.91659ZM18.9583 27.7083V17.5H16.0416V27.7083H18.9583ZM11.6666 27.7083V17.5H8.74992V27.7083H11.6666ZM26.2499 27.7083V17.5H23.3333V27.7083H26.2499ZM8.74992 7.29167V8.75H26.2499V7.29167H8.74992Z" fill="white"/>
</svg>
